<mxfile host="app.diagrams.net" modified="2023-04-04T10:31:39.851Z" agent="5.0 (Macintosh)" etag="V70MseaFVSlb1xou__Rh" version="21.0.10" type="github">
  <diagram name="Page-1" id="5f0bae14-7c28-e335-631c-24af17079c00">
    <mxGraphModel dx="949" dy="645" grid="1" gridSize="10" guides="1" tooltips="1" connect="1" arrows="1" fold="1" page="1" pageScale="1" pageWidth="1169" pageHeight="827" background="none" math="0" shadow="0">
      <root>
        <mxCell id="0" />
        <mxCell id="1" parent="0" />
        <mxCell id="_mM0TyQ6ORSvWqSIFozd-1" value="&lt;div&gt;Developer&lt;/div&gt;&lt;div&gt;System / ???&lt;/div&gt;" style="shape=umlActor;verticalLabelPosition=bottom;verticalAlign=top;html=1;outlineConnect=0;" parent="1" vertex="1">
          <mxGeometry x="20" y="60" width="30" height="60" as="geometry" />
        </mxCell>
        <mxCell id="_mM0TyQ6ORSvWqSIFozd-3" value="TESMMA" style="verticalAlign=top;align=left;spacingTop=8;spacingLeft=2;spacingRight=12;shape=cube;size=10;direction=south;fontStyle=4;html=1;rounded=0;shadow=0;comic=0;labelBackgroundColor=none;strokeWidth=1;fontFamily=Verdana;fontSize=12" parent="1" vertex="1">
          <mxGeometry x="300" y="20" width="280" height="500" as="geometry" />
        </mxCell>
        <mxCell id="_mM0TyQ6ORSvWqSIFozd-4" value="???" style="shape=card;whiteSpace=wrap;html=1;" parent="1" vertex="1">
          <mxGeometry x="180" y="40" width="80" height="100" as="geometry" />
        </mxCell>
        <mxCell id="_mM0TyQ6ORSvWqSIFozd-5" style="edgeStyle=none;rounded=0;html=1;dashed=1;labelBackgroundColor=none;startArrow=none;startFill=0;startSize=8;endArrow=open;endFill=0;endSize=16;fontFamily=Verdana;fontSize=12;" parent="1" source="_mM0TyQ6ORSvWqSIFozd-1" edge="1">
          <mxGeometry relative="1" as="geometry">
            <mxPoint x="474" y="410" as="sourcePoint" />
            <mxPoint x="180" y="90" as="targetPoint" />
          </mxGeometry>
        </mxCell>
        <mxCell id="_mM0TyQ6ORSvWqSIFozd-14" value="provide" style="edgeLabel;html=1;align=center;verticalAlign=middle;resizable=0;points=[];" parent="_mM0TyQ6ORSvWqSIFozd-5" vertex="1" connectable="0">
          <mxGeometry x="-0.1631" relative="1" as="geometry">
            <mxPoint y="-10" as="offset" />
          </mxGeometry>
        </mxCell>
        <mxCell id="_mM0TyQ6ORSvWqSIFozd-6" value="&lt;div&gt;Output&lt;/div&gt;&lt;div&gt;Clustering&lt;br&gt;&lt;/div&gt;" style="shape=component;align=left;spacingLeft=36;rounded=0;shadow=0;comic=0;labelBackgroundColor=none;strokeWidth=1;fontFamily=Verdana;fontSize=12;html=1;" parent="1" vertex="1">
          <mxGeometry x="350" y="60" width="120" height="60" as="geometry" />
        </mxCell>
        <mxCell id="_mM0TyQ6ORSvWqSIFozd-15" style="edgeStyle=none;rounded=0;html=1;dashed=1;labelBackgroundColor=none;startArrow=none;startFill=0;startSize=8;endArrow=open;endFill=0;endSize=16;fontFamily=Verdana;fontSize=12;exitX=1;exitY=0.5;exitDx=0;exitDy=0;exitPerimeter=0;" parent="1" source="_mM0TyQ6ORSvWqSIFozd-4" target="_mM0TyQ6ORSvWqSIFozd-6" edge="1">
          <mxGeometry relative="1" as="geometry">
            <mxPoint x="350" y="180" as="sourcePoint" />
            <mxPoint x="480" y="180" as="targetPoint" />
          </mxGeometry>
        </mxCell>
        <mxCell id="_mM0TyQ6ORSvWqSIFozd-27" value="&lt;div&gt;Action&lt;/div&gt;&lt;div&gt;Clustering&lt;br&gt;&lt;/div&gt;" style="shape=component;align=left;spacingLeft=36;rounded=0;shadow=0;comic=0;labelBackgroundColor=none;strokeWidth=1;fontFamily=Verdana;fontSize=12;html=1;" parent="1" vertex="1">
          <mxGeometry x="350" y="180" width="120" height="60" as="geometry" />
        </mxCell>
        <mxCell id="_mM0TyQ6ORSvWqSIFozd-31" value="IMPRO" style="shape=component;align=left;spacingLeft=36;rounded=0;shadow=0;comic=0;labelBackgroundColor=none;strokeWidth=1;fontFamily=Verdana;fontSize=12;html=1;" parent="1" vertex="1">
          <mxGeometry x="350" y="300" width="120" height="60" as="geometry" />
        </mxCell>
        <mxCell id="_mM0TyQ6ORSvWqSIFozd-39" value="" style="rounded=0;orthogonalLoop=1;jettySize=auto;html=1;endArrow=none;endFill=0;sketch=0;sourcePerimeterSpacing=0;targetPerimeterSpacing=0;" parent="1" source="_mM0TyQ6ORSvWqSIFozd-27" target="_mM0TyQ6ORSvWqSIFozd-41" edge="1">
          <mxGeometry relative="1" as="geometry">
            <mxPoint x="470" y="375" as="sourcePoint" />
          </mxGeometry>
        </mxCell>
        <mxCell id="_mM0TyQ6ORSvWqSIFozd-40" value="" style="rounded=0;orthogonalLoop=1;jettySize=auto;html=1;endArrow=halfCircle;endFill=0;entryX=0.5;entryY=0.5;endSize=6;strokeWidth=1;sketch=0;" parent="1" source="_mM0TyQ6ORSvWqSIFozd-31" target="_mM0TyQ6ORSvWqSIFozd-41" edge="1">
          <mxGeometry relative="1" as="geometry">
            <mxPoint x="510" y="375" as="sourcePoint" />
          </mxGeometry>
        </mxCell>
        <mxCell id="_mM0TyQ6ORSvWqSIFozd-41" value="" style="ellipse;whiteSpace=wrap;html=1;align=center;aspect=fixed;resizable=0;points=[];outlineConnect=0;sketch=0;" parent="1" vertex="1">
          <mxGeometry x="405" y="260" width="10" height="10" as="geometry" />
        </mxCell>
        <mxCell id="_mM0TyQ6ORSvWqSIFozd-45" value="&lt;div&gt;Reduced&lt;/div&gt;&lt;div&gt;Test Sets&lt;br&gt;&lt;/div&gt;" style="text;whiteSpace=wrap;html=1;" parent="1" vertex="1">
          <mxGeometry x="420" y="364" width="90" height="50" as="geometry" />
        </mxCell>
        <mxCell id="_mM0TyQ6ORSvWqSIFozd-47" value="&lt;div&gt;Genetic&lt;/div&gt;&lt;div&gt;Search&lt;br&gt;&lt;/div&gt;" style="shape=component;align=left;spacingLeft=36;rounded=0;shadow=0;comic=0;labelBackgroundColor=none;strokeWidth=1;fontFamily=Verdana;fontSize=12;html=1;" parent="1" vertex="1">
          <mxGeometry x="350" y="420" width="120" height="60" as="geometry" />
        </mxCell>
        <mxCell id="_mM0TyQ6ORSvWqSIFozd-48" value="" style="rounded=0;orthogonalLoop=1;jettySize=auto;html=1;endArrow=none;endFill=0;sketch=0;sourcePerimeterSpacing=0;targetPerimeterSpacing=0;" parent="1" source="_mM0TyQ6ORSvWqSIFozd-31" target="_mM0TyQ6ORSvWqSIFozd-50" edge="1">
          <mxGeometry relative="1" as="geometry">
            <mxPoint x="340" y="405" as="sourcePoint" />
          </mxGeometry>
        </mxCell>
        <mxCell id="_mM0TyQ6ORSvWqSIFozd-49" value="" style="rounded=0;orthogonalLoop=1;jettySize=auto;html=1;endArrow=halfCircle;endFill=0;entryX=0.5;entryY=0.5;endSize=6;strokeWidth=1;sketch=0;" parent="1" source="_mM0TyQ6ORSvWqSIFozd-47" target="_mM0TyQ6ORSvWqSIFozd-50" edge="1">
          <mxGeometry relative="1" as="geometry">
            <mxPoint x="380" y="405" as="sourcePoint" />
          </mxGeometry>
        </mxCell>
        <mxCell id="_mM0TyQ6ORSvWqSIFozd-50" value="" style="ellipse;whiteSpace=wrap;html=1;align=center;aspect=fixed;resizable=0;points=[];outlineConnect=0;sketch=0;" parent="1" vertex="1">
          <mxGeometry x="405" y="380" width="10" height="10" as="geometry" />
        </mxCell>
        <mxCell id="_mM0TyQ6ORSvWqSIFozd-53" style="edgeStyle=none;rounded=0;html=1;dashed=1;labelBackgroundColor=none;startArrow=none;startFill=0;startSize=8;endArrow=open;endFill=0;endSize=16;fontFamily=Verdana;fontSize=12;" parent="1" source="_mM0TyQ6ORSvWqSIFozd-47" target="_mM0TyQ6ORSvWqSIFozd-54" edge="1">
          <mxGeometry relative="1" as="geometry">
            <mxPoint x="640" y="560" as="sourcePoint" />
            <mxPoint x="510" y="450" as="targetPoint" />
          </mxGeometry>
        </mxCell>
        <mxCell id="_mM0TyQ6ORSvWqSIFozd-54" value="&lt;div&gt;Minimized&lt;/div&gt;&lt;div&gt;Test Set&lt;br&gt;&lt;/div&gt;" style="shape=card;whiteSpace=wrap;html=1;" parent="1" vertex="1">
          <mxGeometry x="620" y="400" width="80" height="100" as="geometry" />
        </mxCell>
        <mxCell id="7Ys1QBG7y0jTQ1-wFaVs-3" value="&lt;div&gt;Initial Test Set,&lt;/div&gt;&lt;div&gt;Costs, Subclasses&lt;br&gt;&lt;/div&gt;" style="text;whiteSpace=wrap;html=1;" parent="1" vertex="1">
          <mxGeometry x="420" y="245" width="110" height="50" as="geometry" />
        </mxCell>
      </root>
    </mxGraphModel>
  </diagram>
</mxfile>
